# xmcd
#
# Track frame offsets: 
#        150
#        18672
#        44607
#        62443
#        75936
#        94368
#        110198
#        128040
#        139828
#        155831
#
# Disc length: 2408 seconds
#
# Revision: 2
# Processed by: cddbd v1.5.2PL0 Copyright (c) Steve Scherf et al.
# Submitted via: ExactAudioCopy v1.0b1
#
DISCID=8909660a
DTITLE=Phoebe Snow - Second Childhood
DYEAR=1976
DGENRE=
TTITLE0=Two Fisted Love
TTITLE1=Cash In
TTITLE2=Inspired Insanity
TTITLE3=No Regrets
TTITLE4=Sweet Disposition
TTITLE5=All Over
TTITLE6=Isn't It A Shame
TTITLE7=Goin' Down For The Third Time
TTITLE8=Pre-Dawn Imagination
TTITLE9=There's A Boat That's Leavin' Soon For New York
EXTD=
EXTT0=
EXTT1=
EXTT2=
EXTT3=
EXTT4=
EXTT5=
EXTT6=
EXTT7=
EXTT8=
EXTT9=
PLAYORDER=
